<svg width="50" height="50" viewBox="0 0 50 50" fill="none" xmlns="http://www.w3.org/2000/svg">
<rect width="50" height="50" rx="25" fill="#71BD44"/>
<path d="M21.25 30.5C21.9141 30.5 22.5 31.0859 22.5 31.75V33.625L26.3281 30.7734C26.5234 30.6172 26.7969 30.5 27.0703 30.5H32.5C33.1641 30.5 33.75 29.9531 33.75 29.25V18C33.75 17.3359 33.1641 16.75 32.5 16.75H17.5C16.7969 16.75 16.25 17.3359 16.25 18V29.25C16.25 29.9531 16.7969 30.5 17.5 30.5H21.25ZM15 18C15 16.6328 16.0938 15.5 17.5 15.5H32.5C33.8672 15.5 35 16.6328 35 18V29.25C35 30.6562 33.8672 31.75 32.5 31.75H27.0703L22.2266 35.3828C22.0312 35.5391 21.7969 35.5391 21.5625 35.4609C21.3672 35.3438 21.25 35.1484 21.25 34.875V33V31.75H20H17.5C16.0938 31.75 15 30.6562 15 29.25V18Z" fill="white"/>
</svg>
