<svg width="50" height="50" viewBox="0 0 50 50" fill="none" xmlns="http://www.w3.org/2000/svg">
<rect width="50" height="50" rx="25" fill="#25D366"/>
<path d="M30.8438 19.3281C32.4844 20.9688 33.5 23.1172 33.5 25.4609C33.5 30.2266 29.5156 34.1328 24.7109 34.1328C23.2656 34.1328 21.8594 33.7422 20.5703 33.0781L16 34.25L17.2109 29.7578C16.4688 28.4688 16.0391 26.9844 16.0391 25.4219C16.0391 20.6562 19.9453 16.75 24.7109 16.75C27.0547 16.75 29.2422 17.6875 30.8438 19.3281ZM24.7109 32.6484C28.6953 32.6484 32.0156 29.4062 32.0156 25.4609C32.0156 23.5078 31.1953 21.7109 29.8281 20.3438C28.4609 18.9766 26.6641 18.2344 24.75 18.2344C20.7656 18.2344 17.5234 21.4766 17.5234 25.4219C17.5234 26.7891 17.9141 28.1172 18.6172 29.2891L18.8125 29.5625L18.0703 32.2188L20.8047 31.4766L21.0391 31.6328C22.1719 32.2969 23.4219 32.6484 24.7109 32.6484ZM28.6953 27.2578C28.8906 27.375 29.0469 27.4141 29.0859 27.5312C29.1641 27.6094 29.1641 28.0391 28.9688 28.5469C28.7734 29.0547 27.9141 29.5234 27.5234 29.5625C26.8203 29.6797 26.2734 29.6406 24.9062 29.0156C22.7188 28.0781 21.3125 25.8906 21.1953 25.7734C21.0781 25.6172 20.3359 24.6016 20.3359 23.5078C20.3359 22.4531 20.8828 21.9453 21.0781 21.7109C21.2734 21.4766 21.5078 21.4375 21.6641 21.4375C21.7812 21.4375 21.9375 21.4375 22.0547 21.4375C22.2109 21.4375 22.3672 21.3984 22.5625 21.8281C22.7188 22.2578 23.1875 23.3125 23.2266 23.4297C23.2656 23.5469 23.3047 23.6641 23.2266 23.8203C22.8359 24.6406 22.3672 24.6016 22.6016 24.9922C23.4609 26.4375 24.2812 26.9453 25.5703 27.5703C25.7656 27.6875 25.8828 27.6484 26.0391 27.5312C26.1562 27.375 26.5859 26.8672 26.7031 26.6719C26.8594 26.4375 27.0156 26.4766 27.2109 26.5547C27.4062 26.6328 28.4609 27.1406 28.6953 27.2578Z" fill="white"/>
</svg>
