<svg width="50" height="50" viewBox="0 0 50 50" fill="none" xmlns="http://www.w3.org/2000/svg">
<rect width="50" height="50" rx="25" fill="#266682"/>
<path d="M17.5 19.25C16.7969 19.25 16.25 19.8359 16.25 20.5V22.0625L23.8672 27.6875C24.5312 28.1562 25.4297 28.1562 26.0938 27.6875L33.75 22.0625V20.5C33.75 19.8359 33.1641 19.25 32.5 19.25H17.5ZM16.25 23.625V30.5C16.25 31.2031 16.7969 31.75 17.5 31.75H32.5C33.1641 31.75 33.75 31.2031 33.75 30.5V23.625L26.8359 28.7031C25.7422 29.4844 24.2188 29.4844 23.125 28.7031L16.25 23.625ZM15 20.5C15 19.1328 16.0938 18 17.5 18H32.5C33.8672 18 35 19.1328 35 20.5V30.5C35 31.9062 33.8672 33 32.5 33H17.5C16.0938 33 15 31.9062 15 30.5V20.5Z" fill="white"/>
</svg>
