<svg width="44" height="44" viewBox="0 0 44 44" fill="none" xmlns="http://www.w3.org/2000/svg">
<rect width="44" height="44" rx="22" fill="white"/>
<rect width="44" height="44" rx="22" fill="url(#paint0_radial_291_1424)"/>
<rect width="44" height="44" rx="22" fill="url(#paint1_radial_291_1424)"/>
<path d="M22 18.4062C23.9688 18.4062 25.5938 20.0312 25.5938 22C25.5938 24 23.9688 25.5938 22 25.5938C20 25.5938 18.4062 24 18.4062 22C18.4062 20.0312 20 18.4062 22 18.4062ZM22 24.3438C23.2812 24.3438 24.3125 23.3125 24.3125 22C24.3125 20.7188 23.2812 19.6875 22 19.6875C20.6875 19.6875 19.6562 20.7188 19.6562 22C19.6562 23.3125 20.7188 24.3438 22 24.3438ZM26.5625 18.2812C26.5625 18.75 26.1875 19.125 25.7188 19.125C25.25 19.125 24.875 18.75 24.875 18.2812C24.875 17.8125 25.25 17.4375 25.7188 17.4375C26.1875 17.4375 26.5625 17.8125 26.5625 18.2812ZM28.9375 19.125C29 20.2812 29 23.75 28.9375 24.9062C28.875 26.0312 28.625 27 27.8125 27.8438C27 28.6562 26 28.9062 24.875 28.9688C23.7188 29.0312 20.25 29.0312 19.0938 28.9688C17.9688 28.9062 17 28.6562 16.1563 27.8438C15.3438 27 15.0938 26.0312 15.0313 24.9062C14.9688 23.75 14.9688 20.2812 15.0313 19.125C15.0938 18 15.3438 17 16.1562 16.1875C17 15.375 17.9688 15.125 19.0938 15.0625C20.25 15 23.7188 15 24.875 15.0625C26 15.125 27 15.375 27.8125 16.1875C28.625 17 28.875 18 28.9375 19.125ZM27.4375 26.125C27.8125 25.2188 27.7188 23.0312 27.7188 22C27.7188 21 27.8125 18.8125 27.4375 17.875C27.1875 17.2812 26.7188 16.7812 26.125 16.5625C25.1875 16.1875 23 16.2812 22 16.2812C20.9688 16.2812 18.7812 16.1875 17.875 16.5625C17.25 16.8125 16.7812 17.2812 16.5312 17.875C16.1562 18.8125 16.25 21 16.25 22C16.25 23.0312 16.1563 25.2188 16.5313 26.125C16.7813 26.75 17.25 27.2188 17.875 27.4688C18.7813 27.8438 20.9688 27.75 22 27.75C23 27.75 25.1875 27.8438 26.125 27.4688C26.7188 27.2188 27.2188 26.75 27.4375 26.125Z" fill="white"/>
<defs>
<radialGradient id="paint0_radial_291_1424" cx="0" cy="0" r="1" gradientUnits="userSpaceOnUse" gradientTransform="translate(11.6876 47.3889) rotate(-90) scale(43.6073 40.5582)">
<stop stop-color="#FFDD55"/>
<stop offset="0.1" stop-color="#FFDD55"/>
<stop offset="0.5" stop-color="#FF543E"/>
<stop offset="1" stop-color="#C837AB"/>
</radialGradient>
<radialGradient id="paint1_radial_291_1424" cx="0" cy="0" r="1" gradientUnits="userSpaceOnUse" gradientTransform="translate(-7.37023 3.16969) rotate(78.6806) scale(19.4926 80.3494)">
<stop stop-color="#3771C8"/>
<stop offset="0.128" stop-color="#3771C8"/>
<stop offset="1" stop-color="#6600FF" stop-opacity="0"/>
</radialGradient>
</defs>
</svg>
