<svg width="44" height="44" viewBox="0 0 44 44" fill="none" xmlns="http://www.w3.org/2000/svg">
<rect width="44" height="44" rx="22" fill="#0A66C2"/>
<path d="M18.125 28H15.2188V18.6562H18.125L18.125 28ZM16.6562 17.4062C15.75 17.4062 15 16.625 15 15.6875C15 14.7812 15.75 14.0312 16.6562 14.0312C17.5938 14.0312 18.3438 14.7812 18.3438 15.6875C18.3438 16.625 17.5938 17.4062 16.6562 17.4062ZM28.9688 28H26.0938V23.4688C26.0938 22.375 26.0625 21 24.5625 21C23.0625 21 22.8438 22.1562 22.8438 23.375L22.8438 28H19.9375L19.9375 18.6562H22.7188V19.9375H22.75C23.1562 19.2188 24.0938 18.4375 25.5 18.4375C28.4375 18.4375 29 20.375 29 22.875V28H28.9688Z" fill="white"/>
</svg>
