<svg width="50" height="50" viewBox="0 0 50 50" fill="none" xmlns="http://www.w3.org/2000/svg">
<rect width="50" height="50" rx="25" fill="#4499BD"/>
<path d="M29.6484 26.2812L34.0234 28.1562C34.7266 28.4297 35.1172 29.1719 34.9609 29.9141L34.0234 34.2891C33.8672 34.9922 33.2422 35.5391 32.5 35.5391C32.2266 35.5391 31.9922 35.5 31.7578 35.5C31.6016 35.5 31.4062 35.5 31.25 35.4609C22.1484 34.8359 15 27.2578 15 18C15 17.2969 15.5078 16.6328 16.2109 16.4766L20.5859 15.5391C21.3281 15.3828 22.0703 15.7734 22.3438 16.4766L24.2188 20.8516C24.4922 21.4766 24.3359 22.2188 23.7891 22.6484L22.1875 23.9766C23.2422 25.7734 24.7266 27.2578 26.5234 28.3125L27.8516 26.7109C28.2812 26.1641 29.0234 26.0078 29.6484 26.2812ZM32.4609 34.25C32.6172 34.25 32.7344 34.1719 32.7734 34.0156L33.7109 29.6406C33.75 29.4844 33.6719 29.3672 33.5547 29.2891L29.1797 27.4141C29.0234 27.375 28.9062 27.4141 28.7891 27.4922L27.5 29.0938C27.1094 29.5625 26.4453 29.6797 25.8984 29.3672C23.9062 28.2344 22.2656 26.5938 21.1328 24.6016C20.8203 24.0547 20.9375 23.3906 21.4062 23L23.0078 21.7109C23.0859 21.5938 23.125 21.4766 23.0859 21.3203L21.2109 16.9453C21.1328 16.8281 21.0156 16.75 20.8594 16.7891L16.4844 17.7266C16.3281 17.7266 16.25 17.8828 16.25 18C16.25 26.9844 23.5156 34.25 32.4609 34.25Z" fill="white"/>
</svg>
