<svg width="106" height="69" viewBox="0 0 106 69" fill="none" xmlns="http://www.w3.org/2000/svg">
<g clip-path="url(#clip0_307_980)">
<path d="M32.8784 4.05859H32.0381V22.1672H32.8784V4.05859Z" fill="#D11F33"/>
<path d="M16.6373 8.23858L15.9104 8.65625L25.0473 24.2673L25.7742 23.8496L16.6373 8.23858Z" fill="#D11F33"/>
<path d="M4.61917 19.8144L4.19763 20.5347L19.9532 29.5877L20.3747 28.8675L4.61917 19.8144Z" fill="#D11F33"/>
<path d="M48.3693 8.19752L39.2324 23.8086L39.9593 24.2263L49.0962 8.6152L48.3693 8.19752Z" fill="#D11F33"/>
<path d="M18.2762 35.8008H0V36.6334H18.2762V35.8008Z" fill="#D11F33"/>
<path d="M32.8784 50.3711H32.0381V68.4797H32.8784V50.3711Z" fill="#D11F33"/>
<path d="M25.0529 48.2644L15.916 63.8755L16.6429 64.2932L25.7798 48.6821L25.0529 48.2644Z" fill="#D11F33"/>
<path d="M19.9427 42.9528L4.18713 52.0059L4.60867 52.7261L20.3643 43.673L19.9427 42.9528Z" fill="#D11F33"/>
<path d="M39.954 48.3074L39.2271 48.7251L48.3639 64.3362L49.0908 63.9185L39.954 48.3074Z" fill="#D11F33"/>
<path d="M56.6152 54.2208C55.7203 55.477 54.7188 56.6552 53.6216 57.7426C52.5159 58.8308 51.3215 59.8266 50.0504 60.7201C49.4097 61.1603 48.7616 61.5922 48.0852 61.9794L47.8331 62.1282L47.5779 62.2697L47.0653 62.5528C46.7176 62.7287 46.3752 62.9171 46.0213 63.0815C45.3217 63.428 44.6012 63.7309 43.8764 64.0254C43.5098 64.1618 43.1475 64.3095 42.7756 64.4334L42.2253 64.628L41.6644 64.8039C41.2904 64.9225 40.9113 65.0183 40.5321 65.1161L39.9596 65.2483L39.6729 65.3128L39.3851 65.3711L38.8084 65.4877L38.2297 65.5917L37.9408 65.6438L37.6509 65.6875L37.0701 65.7749C35.5172 65.9844 33.9517 66.0888 32.3845 66.0871C26.8586 66.077 21.4419 64.5617 16.7266 61.7069C12.0113 58.8521 8.179 54.7678 5.6486 49.9003C3.1182 45.0329 1.98716 39.5699 2.37916 34.1085C2.77115 28.6471 4.67108 23.3976 7.87121 18.934C9.69533 16.3974 11.904 14.1552 14.4191 12.2869C19.4837 8.52855 25.6176 6.4523 31.9444 6.35475C32.7279 6.3381 33.5115 6.36413 34.294 6.40055L34.8801 6.44114L35.1742 6.46195L35.4662 6.49005L36.0513 6.5473L36.6342 6.62014L36.9262 6.65657L37.2161 6.70132L37.7969 6.78978L38.3757 6.89385C38.569 6.92716 38.7612 6.96255 38.9534 7.00418C39.7233 7.14884 40.4838 7.34345 41.2358 7.56304C44.231 8.47488 47.0674 9.83635 49.646 11.6C50.2826 12.0454 50.9065 12.5023 51.5083 12.9967L51.7342 13.1798L51.9558 13.3682L52.3959 13.747C52.6816 14.0082 52.9736 14.2674 53.2488 14.5349C54.3607 15.6057 55.3813 16.7659 56.3001 18.0036C55.3224 16.8182 54.2474 15.7151 53.086 14.7055C52.8013 14.4495 52.4999 14.2101 52.2058 13.9645L51.7531 13.6096L51.5262 13.4338L51.294 13.2631C50.6817 12.802 50.042 12.3795 49.3961 11.9695C46.7992 10.352 43.9695 9.13472 41.0037 8.35919C40.6329 8.2676 40.2684 8.1677 39.8935 8.08132L39.3378 7.94602L38.779 7.82425C38.5931 7.78263 38.4062 7.74621 38.2181 7.7129L37.6552 7.60883L37.0901 7.52246L36.8075 7.47978L36.5229 7.44336L35.9557 7.37258L35.3853 7.31742L35.1007 7.28933L34.815 7.26955L34.2446 7.23001C33.4821 7.19358 32.7185 7.16861 31.9559 7.18526C25.8044 7.27876 19.8403 9.29678 14.916 12.9509C9.99008 16.5987 6.34412 21.6866 4.49221 27.4971C3.10922 31.8416 2.77776 36.4477 3.52464 40.9427C4.27152 45.4377 6.07577 49.6954 8.79143 53.3714C11.5071 57.0474 15.0579 60.0383 19.1566 62.1024C23.2553 64.1664 27.7868 65.2455 32.3845 65.2524C33.9124 65.2541 35.4387 65.1519 36.9525 64.9465L37.5176 64.8622L37.8012 64.8185L38.0827 64.7685L38.6456 64.6645L39.2055 64.5458C39.5805 64.4719 39.9481 64.3689 40.3199 64.2846L40.8724 64.1389C41.0573 64.0931 41.2421 64.0462 41.4249 63.9932C44.3872 63.2071 47.21 61.9743 49.7941 60.3382C51.089 59.5151 52.313 58.5875 53.4536 57.5646C54.6016 56.5412 55.6593 55.4226 56.6152 54.2208Z" fill="#D11F33"/>
<path d="M51.4045 51.7314C51.0201 52.2132 50.6209 52.6857 50.1987 53.1374C49.7764 53.5891 49.3384 54.0282 48.8742 54.4414C48.4099 54.8546 47.9352 55.2552 47.4373 55.6299C47.1926 55.8224 46.9363 55.9994 46.6842 56.1825C46.4321 56.3657 46.1706 56.5364 45.9048 56.7029C44.8501 57.3777 43.7435 57.9693 42.5951 58.4721C41.4451 58.9812 40.2549 59.3961 39.0365 59.7127C38.4252 59.8625 37.8066 59.9801 37.1858 60.0842C36.565 60.1883 35.9411 60.2705 35.3151 60.335C34.062 60.4592 32.8016 60.4961 31.5433 60.4453C26.4644 60.2343 21.5795 58.4536 17.5735 55.3531C15.5818 53.8135 13.8409 51.9794 12.4121 49.9153C9.89922 46.2865 8.43095 42.0484 8.16481 37.6555C7.89867 33.2626 8.84469 28.8809 10.9014 24.9804C12.9581 21.0798 16.0478 17.8077 19.839 15.5152C23.6303 13.2227 27.98 11.9962 32.4214 11.9674C33.6811 11.9591 34.9399 12.0401 36.188 12.2099C36.8108 12.3004 37.4326 12.4024 38.0492 12.5314C38.3643 12.5887 38.6647 12.6657 38.9704 12.7396C39.1237 12.775 39.2739 12.8228 39.4262 12.8645C39.5785 12.9061 39.7298 12.9488 39.8779 12.9998C41.0763 13.3797 42.2445 13.8479 43.3724 14.4006C44.4974 14.9504 45.5773 15.5865 46.6023 16.303C47.6211 17.0188 48.581 17.8137 49.4729 18.68C50.3583 19.5451 51.1705 20.4807 51.9013 21.4775C51.1126 20.5329 50.247 19.654 49.3132 18.8497C48.3866 18.047 47.3976 17.318 46.3554 16.6694C44.2773 15.3811 42.0155 14.41 39.6457 13.7886C34.9674 12.4451 29.8774 12.443 25.2464 13.9583C19.3919 15.8653 14.5193 19.9605 11.6654 25.3725C8.81142 30.7845 8.20127 37.0863 9.96473 42.9372C10.6631 45.2533 11.722 47.4472 13.1032 49.4397C15.8779 53.4522 19.8417 56.5119 24.4471 58.1963C26.7369 59.0303 29.1436 59.5064 31.5811 59.6076C32.7998 59.6577 34.0205 59.6229 35.2342 59.5035C36.4481 59.3868 37.6511 59.1781 38.8328 58.879C38.9798 58.8405 39.129 58.8072 39.2771 58.775L39.7193 58.6605C39.8674 58.6251 40.0144 58.5856 40.1604 58.5439C40.3064 58.5023 40.4545 58.4638 40.6005 58.4211C41.1856 58.2473 41.7643 58.0558 42.3367 57.8414C43.4819 57.4107 44.5922 56.8941 45.658 56.296C45.9269 56.1492 46.1832 55.9837 46.451 55.8328C46.7188 55.6819 46.9762 55.5102 47.2241 55.3354C47.7356 54.9971 48.2282 54.6319 48.7103 54.2509C49.1924 53.87 49.6556 53.4673 50.1094 53.0499C50.5631 52.6326 50.9875 52.1862 51.4045 51.7314Z" fill="#D11F33"/>
<path d="M46.6574 46.7146C46.1603 47.4406 45.6035 48.1247 44.9925 48.7597C44.6879 49.0802 44.3623 49.3789 44.0294 49.6745C43.6964 49.97 43.3508 50.2479 42.9906 50.507C41.5458 51.5683 39.9458 52.4046 38.2461 52.9871C37.8207 53.135 37.3864 53.2566 36.9458 53.3513C36.7273 53.4023 36.5046 53.4408 36.2851 53.4866C36.0656 53.5324 35.8418 53.5678 35.6192 53.6032C34.7301 53.7441 33.8325 53.8255 32.9323 53.8467C28.3688 53.9655 23.9322 52.3506 20.5317 49.3327C17.1312 46.3149 15.0243 42.1227 14.6428 37.6153C14.2613 33.1079 15.634 28.6266 18.4797 25.0897C21.3254 21.5528 25.4285 19.2282 29.9483 18.5922C31.7369 18.347 33.552 18.3607 35.3366 18.6328C35.7838 18.6901 36.2274 18.7721 36.6653 18.8784C37.1012 18.9939 37.5319 19.124 37.9562 19.2728C38.8033 19.5663 39.6275 19.9207 40.4224 20.3333C41.2103 20.7479 41.9656 21.2207 42.6818 21.7477C43.3923 22.2735 44.0596 22.8543 44.6774 23.4846C44.0028 22.9264 43.2857 22.4205 42.5326 21.9714C41.7873 21.5223 41.0089 21.1295 40.204 20.7965C39.4054 20.4629 38.5832 20.1877 37.744 19.9732C37.3239 19.8639 36.9037 19.7765 36.4836 19.6974C36.0634 19.6183 35.6433 19.5195 35.2158 19.456C33.5113 19.1955 31.7775 19.1822 30.0691 19.4165C28.3636 19.6541 26.7049 20.1486 25.1502 20.8828C22.0243 22.3631 19.4242 24.747 17.6927 27.7204C16.8334 29.1995 16.2069 30.7998 15.8346 32.4661C15.4636 34.133 15.3475 35.8458 15.4901 37.5469C15.7755 40.9691 17.1112 44.2227 19.3176 46.8707C20.4145 48.1866 21.7048 49.3317 23.1451 50.2677C26.0432 52.152 29.4547 53.1105 32.9197 53.0141C33.7815 52.9943 34.6409 52.9164 35.4921 52.781C36.345 52.654 37.1726 52.4167 38.0066 52.2044C38.8398 51.978 39.6556 51.6929 40.4477 51.3511C41.242 51.0048 42.0092 50.6003 42.7427 50.1407C43.1124 49.9138 43.4674 49.663 43.8193 49.4122C44.1712 49.1614 44.5083 48.8804 44.8339 48.591C45.493 48.0165 46.1029 47.3889 46.6574 46.7146Z" fill="#D11F33"/>
<path d="M105.975 26.6426C105.975 26.6946 105.997 26.7623 105.975 26.7956C105.66 27.2119 105.562 27.6344 106.004 28.0392C105.728 28.1995 105.479 28.1724 105.237 28.2026C104.662 28.2724 104.129 28.3847 103.668 28.8166C103.207 29.2485 102.587 29.3713 101.951 29.2621C101.23 29.1382 100.674 29.3849 100.293 29.9906C100.14 30.2331 99.9594 30.2706 99.7221 30.2164C99.2578 30.1205 98.7764 30.1459 98.3251 30.2903C97.864 30.4215 97.4039 30.4735 96.9334 30.3143C96.6824 30.23 96.4576 30.3142 96.2548 30.4828C95.5479 31.0823 94.7665 31.406 93.7991 31.2551C93.554 31.22 93.3039 31.2416 93.0687 31.3184C92.8334 31.3951 92.6193 31.5249 92.4431 31.6974C92.0587 32.0585 91.6186 32.1251 91.1312 32.0096C90.5987 31.8816 90.1176 31.9909 89.6061 32.1855C88.5778 32.5768 87.4781 32.7214 86.393 32.8807C85.6294 32.992 84.8438 33.2522 84.0823 32.8276C83.9709 32.7662 83.931 32.862 83.9111 32.9504C83.723 33.7934 83.0319 34.0047 82.3229 34.1826C82.0435 34.2523 81.783 34.3304 81.6307 34.5989C81.6066 34.6437 81.5687 34.703 81.5257 34.7134C80.6948 34.856 79.9428 35.3108 79.0836 35.3243C78.9134 35.3243 78.7391 35.2452 78.5773 35.3503C77.6614 35.9466 76.6089 36.1256 75.5638 36.3369C75.1532 36.4191 74.7477 36.5284 74.3454 36.6429C74.1984 36.6845 73.9925 36.747 73.9389 36.851C73.6722 37.3953 73.1974 37.361 72.7006 37.3995C72.0178 37.4515 71.3593 37.642 70.7984 38.0656C70.6709 38.1731 70.5179 38.2466 70.3538 38.2792C70.1896 38.3118 70.0199 38.3024 69.8604 38.2519C69.4854 38.1301 69.2302 38.2466 69.0044 38.5505C68.5538 39.1552 68.0118 39.5777 67.1789 39.3477C67.0916 39.3327 67.0022 39.335 66.9158 39.3545C66.8294 39.374 66.7478 39.4102 66.6757 39.4612C66.2556 39.7078 65.743 39.8025 65.3481 40.069C64.3429 40.7465 63.2064 41.0233 62.0647 41.347C60.8357 41.6967 59.7329 42.3575 58.6142 42.9622C58.1804 43.1963 57.7403 43.3972 57.2309 43.3951C56.8108 43.3951 56.5629 43.6761 56.3465 43.9706C56.1081 44.2933 55.8213 44.5233 55.4211 44.5951C55.2283 44.6223 55.054 44.7236 54.9359 44.8771C54.4517 45.5255 53.7805 45.9178 53.0389 46.1988C52.5412 46.3681 52.0802 46.6286 51.6798 46.9669C51.1619 47.4331 50.3784 47.5164 49.9897 48.1533C48.8344 48.2116 48.3606 49.2627 47.5424 49.8112C47.3323 49.8757 47.2147 49.7269 47.0824 49.627C45.0058 48.0555 42.695 47.9202 40.2708 48.5519C39.4589 48.76 38.6795 49.0723 38.0041 49.5926C37.8676 49.6967 37.7205 49.8008 37.5273 49.729C37.5194 49.7137 37.5102 49.699 37.4999 49.6852C36.772 48.9026 36.7542 48.8881 37.4411 48.0628C38.128 47.2375 38.8318 46.4143 39.7708 45.8408C39.9363 45.743 40.0924 45.6305 40.2372 45.5047C41.1041 44.7216 42.118 44.1151 43.2212 43.7198C43.7193 43.5464 44.1646 43.2502 44.5153 42.8591C44.5576 42.8037 44.6095 42.7561 44.6686 42.7186C46.4017 41.8548 47.8439 40.429 49.869 40.1168C50.3322 40.045 50.8143 39.8535 50.8721 39.2218C50.8973 38.9221 51.2071 38.9762 51.3815 39.023C51.9403 39.175 52.3478 38.9835 52.852 38.7108C53.9244 38.1395 55.0388 37.6368 56.1081 37.0457C56.1643 37.0039 56.2299 36.9764 56.2992 36.9655C57.1248 36.9926 57.7887 36.4514 58.5722 36.3411C58.6237 36.3328 58.6941 36.3411 58.7245 36.3099C59.6089 35.4304 60.8158 35.4024 61.925 35.1318C62.7873 34.9236 63.5604 34.4626 64.4458 34.3085C64.9636 34.219 65.5224 34.1608 65.9625 33.7965C65.9963 33.7691 66.0357 33.7495 66.078 33.739C66.1204 33.7286 66.1645 33.7276 66.2073 33.7361C66.8112 33.9776 67.2356 33.6321 67.6841 33.3271C68.0769 33.0607 68.5244 33.0233 68.9907 33.0545C69.5527 33.092 70.0642 32.9671 70.4612 32.5341C70.5421 32.4467 70.6471 32.326 70.748 32.3208C71.7238 32.2552 72.5766 31.6027 73.5923 31.7463C73.6091 31.7463 73.6291 31.7411 73.6449 31.7463C74.5387 32.0887 75.4032 31.842 76.2708 31.636C76.4955 31.5829 76.7266 31.5527 76.8947 31.3935C77.6541 30.6702 78.7391 30.7222 79.6151 30.2664C79.9596 30.0863 80.365 30.3205 80.7159 30.4693C81.136 30.6473 81.5688 30.6525 81.9133 30.384C83.118 29.4473 84.5633 29.6222 85.9319 29.5431C86.5217 29.5231 87.0947 29.3431 87.5884 29.0227C87.9528 28.7854 88.2973 28.5221 88.7206 28.3816C88.9107 28.3181 89.1051 28.264 89.2836 28.3296C90.229 28.6803 91.1228 28.365 91.9999 28.1214C92.8265 27.8894 93.6962 27.9018 94.5092 27.6188C94.6296 27.5988 94.7534 27.6189 94.861 27.676C95.2692 27.8346 95.7067 27.9055 96.1446 27.8842C96.5984 27.868 97.0526 27.9029 97.4985 27.9882C98.2484 28.1475 98.7694 27.6302 99.2326 27.1952C99.7231 26.7331 100.149 26.501 100.799 26.8382C101.168 27.0297 101.594 26.831 101.992 26.8778C102.727 26.9652 103.462 27.2129 104.187 26.7966C104.284 26.7404 104.469 26.7862 104.592 26.8351C104.817 26.9345 105.066 26.9692 105.311 26.9352C105.556 26.9011 105.786 26.7997 105.975 26.6426Z" fill="#D11F33"/>
<path d="M57.7508 15.1985L55.9841 15.0945C55.8791 15.0882 55.7741 15.0841 55.669 15.0809C54.9149 15.0601 54.9033 14.3441 54.6439 13.9143C54.4506 13.5958 54.5672 13.1442 54.9695 12.8736C56.3549 11.9265 57.8055 11.1876 59.5501 11.1543C61.0511 11.1251 62.5615 10.9191 64.0509 11.1543C65.5046 11.3672 66.8829 11.9324 68.0633 12.7997C68.5086 13.1317 68.7365 13.6114 68.9035 14.1412C69.3678 15.5982 69.1682 17.0323 68.9918 18.5122C68.7817 20.2356 68.0633 21.7187 67.2282 23.184C66.8333 23.8771 66.4468 24.5744 66.0592 25.2717C65.8397 25.6682 65.6002 26.0408 65.2305 26.3291C64.8796 26.6018 64.7819 26.9535 65.1254 27.3094C65.451 27.6456 65.347 27.962 65.1149 28.2877C64.5173 29.1266 63.8062 29.8665 63.0982 30.6096C61.8754 31.8974 60.5436 33.0791 59.1174 34.1418C58.6554 34.4864 58.2239 34.8694 57.8275 35.2866C57.6437 35.4968 57.4222 35.6714 57.1742 35.8018C56.8024 35.9787 56.4127 36.0546 56.1238 35.6914C55.99 35.5367 55.919 35.3382 55.9246 35.1346C55.9303 34.9309 56.0121 34.7365 56.1543 34.5893C56.5808 34.1096 57.0534 33.6693 57.5051 33.2114C59.4503 31.2392 61.3231 29.2025 62.9438 26.9577C63.4753 26.2209 64.0887 25.5007 64.1874 24.5338C64.2011 24.4471 64.2472 24.3687 64.3166 24.3142C65.262 23.6409 65.492 22.5971 65.7493 21.5709C65.91 20.934 66.0445 20.2898 66.2997 19.6789C66.3544 19.5604 66.3843 19.4323 66.3877 19.3021C66.3912 19.1719 66.368 19.0423 66.3197 18.9212C65.8229 17.6838 65.0666 16.6202 63.9627 15.8688C63.0058 15.2173 61.8746 15.134 60.736 15.2069C60.3641 15.2308 60.3673 15.5285 60.3158 15.7689C59.8085 18.1032 59.3232 20.4417 58.8023 22.7729C58.2246 25.3591 57.7466 27.9641 57.2425 30.5638C56.9904 31.8584 56.377 33.0001 55.5125 34.0055C55.4327 34.0981 55.3466 34.2136 55.2111 34.1532C55.0472 34.0773 55.0294 33.8993 55.0367 33.7484C55.0661 33.124 55.1102 32.5048 55.1523 31.8824C55.3182 29.4294 55.3623 26.9681 55.6596 24.5234C55.9397 22.256 56.21 19.9876 56.4705 17.7181C56.5141 17.4445 56.6135 17.1825 56.7625 16.948L57.7508 15.1985Z" fill="#D11F33"/>
<path d="M70.7955 23.4992C70.806 22.2014 70.6169 20.9089 70.6768 19.609C70.7068 19.0909 70.8291 18.5821 71.0381 18.1062C71.4036 17.233 71.496 16.3838 71.0202 15.4669C70.5675 14.5958 70.6631 13.5936 70.8564 12.6643C71.2198 10.9231 71.7922 9.22987 72.2092 7.49914C72.4078 6.67385 72.9277 6.00986 73.6713 5.53841C73.9791 5.34275 74.2585 5.10442 74.5515 4.88587C74.8446 4.66732 75.0977 4.44045 75.4969 4.64235C75.896 4.84425 76.0788 5.1294 76.0809 5.59149C76.0809 6.65511 75.8813 7.69063 75.709 8.7324C75.0084 12.9838 74.1829 17.2153 73.6356 21.4917C73.5632 22.0578 73.4749 22.6229 73.3909 23.187C73.2776 23.9254 73.3068 24.6783 73.477 25.4058C73.7102 26.4091 73.4035 27.2791 72.7901 28.0763C72.6479 28.2544 72.4688 28.4003 72.2649 28.5041C71.4246 28.9536 70.8291 28.6529 70.8028 27.7079C70.7619 26.3061 70.7955 24.9021 70.7955 23.4992Z" fill="#D11F33"/>
<path d="M52.1083 19.2364C52.0715 18.4798 51.5211 17.9667 50.7365 17.7991C50.4288 17.7336 50.1158 17.6857 49.8364 17.5337C49.557 17.3818 49.3763 17.1768 49.5381 16.8583C49.7576 16.4233 49.8658 15.9539 50.0296 15.5054C50.1819 15.0891 50.1273 14.9486 49.6767 14.985C48.9247 15.036 48.2461 15.2452 47.7861 15.9217C47.535 16.2963 47.3218 16.4972 47.0823 16.5461C47.0636 16.5496 47.0464 16.5587 47.033 16.5721C46.7861 16.824 46.6128 17.1476 46.3964 17.4546L46.387 17.4723C46.2893 17.7367 46.0456 18.0427 45.6612 18.4319C45.3177 18.7785 44.907 19.047 44.573 19.4018C44.2936 19.6995 44.1088 20.0346 44.2579 20.4363C44.4816 21.0254 44.3136 21.5124 43.9428 21.9776C43.7975 22.1507 43.676 22.3422 43.5815 22.5469C43.5584 22.6114 43.5384 22.6781 43.5206 22.7457C42.8077 25.5709 42.0875 28.3954 41.36 31.2193C41.1709 31.9582 40.922 32.6399 40.2203 33.0738C39.9872 33.2185 39.8139 33.4527 39.6195 33.6525C39.2131 34.0688 38.9757 34.5496 39.0219 35.1501C39.0525 35.5143 39.0107 35.881 38.899 36.2293C38.7582 36.655 38.8129 37.0463 39.1301 37.3918C39.3401 37.6176 39.4693 37.881 39.3801 38.2005C39.0471 39.3869 38.8003 40.5941 38.482 41.7857C38.4043 42.0761 38.2436 42.1323 37.9747 42.0397C37.5048 41.893 37.0816 41.6276 36.7468 41.2695C36.3729 40.8533 35.9002 40.6295 35.3603 40.4807C34.4462 40.236 33.4999 40.1307 32.5538 40.1685C31.4509 40.2038 30.5444 39.7803 29.6233 39.3265C29.055 39.0455 28.9931 38.7895 29.2735 38.2348C29.4155 37.9757 29.5733 37.7254 29.7462 37.4855C30.3354 36.604 31.1831 35.965 31.9603 35.2791C33.5852 33.8471 35.0736 32.2829 36.6103 30.7665C37.189 30.1952 37.7657 29.5864 37.9841 28.7652C38.2478 27.7932 38.4736 26.8108 38.5503 25.8054C38.6154 24.9604 38.3013 24.2683 37.5409 23.8353C37.1254 23.608 36.6595 23.486 36.1849 23.4804C35.1345 23.4398 34.0841 23.5772 33.0474 23.699C31.3826 23.8946 29.7157 24.0414 28.1423 24.7293C26.2285 25.5619 24.8662 27.4893 24.8473 29.5708C24.8379 30.5417 24.84 31.5138 24.8473 32.4848C24.8568 33.922 24.8809 35.3593 25.1277 36.7819C25.1645 36.9901 25.1782 37.2066 25.0658 37.3918C24.8452 37.755 24.8168 38.1463 24.8662 38.548C24.8936 38.7025 24.8774 38.8614 24.8196 39.0073C24.7618 39.1533 24.6646 39.2807 24.5385 39.3754C24.3153 39.5619 24.1263 39.7851 23.9797 40.0352C23.4734 40.8616 23.6814 41.9086 24.3851 42.5746C24.477 42.6634 24.5462 42.7725 24.5869 42.8931C24.6276 43.0136 24.6388 43.1421 24.6194 43.2677C24.4839 44.8736 24.4933 46.4856 24.4377 48.0946C24.4335 48.2236 24.424 48.3496 24.4093 48.4724C24.4068 48.4855 24.4068 48.4989 24.4093 48.5119C24.4881 48.7409 24.5543 48.9782 24.4933 49.23C24.4886 49.25 24.4906 49.2709 24.4989 49.2897C24.5073 49.3085 24.5215 49.3241 24.5395 49.3341C24.7367 49.4372 24.9496 49.5075 25.1698 49.5423C25.1883 49.5449 25.2073 49.542 25.2242 49.5338C25.241 49.5256 25.255 49.5126 25.2643 49.4965C25.5372 49.0091 25.8491 48.5441 26.197 48.1061C26.7566 47.4572 27.0471 46.6223 27.01 45.7696C26.99 45.0963 27.0541 44.4167 26.9743 43.7475C26.9365 43.4239 27.0131 43.351 27.3335 43.4634C28.5257 43.8797 29.7693 44.0566 31.0097 44.2523C33.2533 44.6051 35.5462 44.5478 37.7698 45.0599C37.8843 45.0859 38.0555 45.1046 38.127 45.0432C38.7467 44.5114 39.5176 44.1908 39.9126 43.3624C40.8495 41.4142 41.1447 39.2922 41.7444 37.2555C42.0879 36.0878 42.6645 35.0772 43.5416 34.2603C45.1045 32.8032 46.9311 31.7053 48.7671 30.6281C48.9908 30.497 49.1295 30.4491 49.1578 30.7957C49.1988 31.316 49.3049 31.825 49.3395 32.3422C49.4593 34.176 49.0717 36.0087 49.3301 37.8435C49.3574 38.0422 49.3038 38.2951 49.5685 38.3638C49.6882 38.4013 49.8177 38.3921 49.9307 38.3381C50.0437 38.2842 50.1317 38.1895 50.1767 38.0735C50.5611 37.2034 51.08 36.3584 51.2754 35.4477C51.8005 32.976 52.2154 30.471 52.3751 27.9483C52.5851 25.0436 52.249 22.14 52.1083 19.2364ZM27.7515 36.7809C27.7515 36.1752 27.9259 35.685 28.1003 35.199C28.4807 34.1583 28.7544 33.0823 28.9174 31.9873C28.9613 31.6782 28.9413 31.3634 28.8586 31.0621C28.7641 30.7135 28.5635 30.42 28.1895 30.3263C27.844 30.2389 27.6539 30.5105 27.4459 30.7166C27.2526 30.907 27.1077 31.1547 26.8293 31.2619C26.5846 30.293 26.8682 29.5895 27.7295 29.0223C28.6275 28.4301 29.6537 28.2314 30.6988 28.1086C30.9602 28.0908 31.217 28.0314 31.4593 27.9327C32.5401 27.4362 33.5075 27.7984 34.415 28.3635C34.9402 28.6893 34.9475 28.9879 34.6135 29.4917C32.7954 32.2215 30.3071 34.3352 27.9963 36.6206C27.9188 36.68 27.837 36.7335 27.7515 36.7809ZM49.2639 26.6474C49.4614 27.7047 48.9194 28.3052 48.0455 28.8079C46.7483 29.5531 45.491 30.3638 43.9554 30.9331C44.823 28.4353 45.6465 26.0521 46.4857 23.673C46.6381 23.2092 46.9083 22.792 47.2703 22.4616C47.6695 22.1098 48.0329 22.1285 48.4257 22.4938C48.6801 22.735 48.8585 23.0441 48.9394 23.3837C49.1872 24.3692 49.4813 25.3517 49.2702 26.3893C49.2519 26.4742 49.2497 26.5617 49.2639 26.6474Z" fill="#D11F33"/>
<path d="M91.9818 2.8037C91.5795 1.38416 90.8979 0.305978 89.3076 0.0447567C89.2971 0.0447567 89.2908 0.0156109 89.2835 0H87.6029C87.5483 0.163394 87.3991 0.104074 87.2878 0.118644C85.8236 0.313259 84.6619 0.98452 83.8069 2.19384C83.4865 2.6476 83.1221 3.06909 82.8532 3.55927C82.7317 3.76964 82.5911 3.96856 82.433 4.15353C82.328 4.28675 82.1862 4.44285 81.994 4.36168C81.8301 4.29507 81.8375 4.10462 81.8385 3.94539C81.8385 3.68625 81.8627 3.42503 81.8637 3.16693C81.8648 2.90883 81.9026 2.61638 81.6064 2.48733C81.3102 2.35828 81.0592 2.49566 80.8375 2.68403C80.4951 2.97439 80.3218 3.3761 80.1327 3.76637C79.3691 5.34827 78.845 7.01656 78.3198 8.68588C77.6245 10.8933 76.5342 12.9643 76.0091 15.231C75.883 15.7722 75.7233 16.304 75.7506 16.8649C75.7685 17.2458 75.8693 17.684 76.2758 17.7318C76.8892 17.8037 76.7306 18.1242 76.6256 18.4604C76.0605 20.2546 76.4764 21.9988 76.9565 23.7139C77.2506 24.7682 77.9133 25.1803 79.0194 25.2292C80.4447 25.2927 81.6222 24.6787 82.6168 23.7795C83.5412 22.9469 84.4371 22.0571 85.1692 21.0299C85.6335 20.3795 86.1544 19.7696 86.6229 19.1212C88.8434 16.0511 91.0092 12.9633 91.9535 9.20416C92.4975 7.05402 92.59 4.95176 91.9818 2.8037ZM88.9768 9.64855C88.3928 11.73 87.9726 13.8468 86.8855 15.7701C85.8351 17.6299 84.4602 19.1951 82.8941 20.6178C82.454 21.0174 81.9078 21.2006 81.3417 21.3276C80.9321 21.4191 80.6264 21.3036 80.492 20.8603C80.3239 20.3045 79.8975 19.8404 79.9321 19.2055C79.9626 18.6352 79.9384 18.0607 79.9384 17.4904C79.8723 15.3476 80.2808 13.2495 80.5014 11.1316C80.6226 9.79914 81.0985 8.52244 81.8805 7.43181C82.7534 6.21729 83.8311 5.20883 85.164 4.50738C86.4076 3.85277 87.7289 4.32108 88.3224 5.57619C88.419 5.78434 88.5167 5.98312 88.6123 6.1871C89.1322 7.29859 89.3255 8.40801 88.9768 9.64855Z" fill="#D11F33"/>
<path d="M19.2191 48.3945H23.0004L19.2191 68.2724H15.5428L19.2191 48.3945Z" fill="#3D3D3D"/>
<path d="M29.6165 48.3945H34.5532L20.2683 62.3402L21.3187 56.9285L29.6165 48.3945Z" fill="#3D3D3D"/>
<path d="M28.2521 68.2708L23.4204 57.9677L26.3614 55.8862L32.3485 68.2708H28.2521Z" fill="#3D3D3D"/>
<path d="M52.8307 48.7056H56.2969L52.5156 68.5834H49.1544L52.8307 48.7056Z" fill="#3D3D3D"/>
<path d="M56.3005 48.7075H52.8344L59.8717 68.5853H63.3379L56.3005 48.7075Z" fill="#3D3D3D"/>
<path d="M63.5445 48.7056H67.1158L63.3345 68.5834H59.8683L63.5445 48.7056Z" fill="#3D3D3D"/>
<path d="M72.8971 48.7056H76.6784L72.8971 68.5834H69.2208L72.8971 48.7056Z" fill="#3D3D3D"/>
<path d="M67.7497 48.7075H81.7195L81.0893 52.0378H67.1195L67.7497 48.7075Z" fill="#3D3D3D"/>
<path d="M89.1746 48.291C82.7674 48.291 79.0912 54.8476 79.0912 60.5716C79.0912 65.2548 81.3137 69.0014 86.1286 69.0014C91.8005 69.0014 96.5271 64.0059 96.5271 56.929C96.5271 51.2102 92.7458 48.291 89.1746 48.291ZM86.7157 65.567C83.5836 65.567 82.7674 62.9455 82.7674 59.8993C82.7674 56.1745 85.1833 51.9096 88.6978 51.9096C91.0211 51.9096 92.8509 53.4946 92.8509 57.5295C92.8509 60.5716 90.4056 65.567 86.7157 65.567Z" fill="#3D3D3D"/>
<path d="M42.8565 47.9756C36.4493 47.9756 32.7731 54.5321 32.7731 60.2561C32.7731 64.9394 34.9956 68.686 39.8105 68.686C45.4824 68.686 50.209 63.6905 50.209 56.6136C50.209 50.8948 46.4277 47.9756 42.8565 47.9756ZM40.3976 65.2516C37.2654 65.2516 36.4493 62.63 36.4493 59.5838C36.4493 55.8591 38.8651 51.5942 42.3796 51.5942C44.703 51.5942 46.5328 53.1792 46.5328 57.2141C46.5328 60.2561 44.0875 65.2516 40.3976 65.2516Z" fill="#3D3D3D"/>
<path d="M13.1305 54.2199L16.7017 54.1158C16.7017 54.1158 16.9118 48.0796 9.76935 48.0796C3.25714 48.0796 3.67728 54.2199 3.67728 54.2199C3.67728 54.2199 3.57224 57.1339 6.51325 58.695C9.45425 60.2561 10.5046 60.7764 10.5046 60.7764C10.5046 60.7764 12.5003 61.609 11.66 63.7945C11.3995 64.472 10.6674 64.8353 9.96367 65.0288C8.97657 65.2897 7.93622 65.2778 6.95544 64.9945C6.13826 64.7666 5.25702 64.3461 5.14778 63.5864C4.98182 62.4343 4.93771 61.7131 4.93771 61.7131L1.47153 61.8171C1.47153 61.8171 0.526207 68.2696 8.08878 68.5819C14.706 68.8556 15.4413 63.5864 15.4413 63.5864C15.4413 63.5864 16.6408 59.5494 11.9751 57.238C9.87439 56.1972 9.4742 55.9891 8.08878 55.2606C8.08878 55.2606 6.77268 54.5446 7.2485 52.6588C7.66864 50.9936 10.1895 51.3058 10.1895 51.3058C10.1895 51.3058 13.0255 51.3058 13.1305 54.2199Z" fill="#3D3D3D"/>
</g>
<defs>
<clipPath id="clip0_307_980">
<rect width="106" height="69" fill="white"/>
</clipPath>
</defs>
</svg>
