<svg width="44" height="44" viewBox="0 0 44 44" fill="none" xmlns="http://www.w3.org/2000/svg">
<rect width="44" height="44" rx="22" fill="black"/>
<path d="M29 20.5625H28.9688C27.5312 20.5625 26.2188 20.125 25.1562 19.3438V24.9375C25.1562 27.75 22.875 30 20.0625 30C17.25 30 15 27.75 15 24.9375C15 22.125 17.25 19.8438 20.0625 19.8438C20.3125 19.8438 20.5312 19.875 20.7812 19.9062V22.7188C20.5312 22.625 20.3125 22.5938 20.0625 22.5938C18.7812 22.5938 17.7188 23.6562 17.7188 24.9375C17.7188 26.2188 18.7813 27.2812 20.0625 27.2812C21.3438 27.2812 22.4062 26.2188 22.4062 24.9375V14H25.1562C25.1562 14.0312 25.1562 14.0312 25.1562 14.0625C25.1562 14.2812 25.1562 14.5 25.2188 14.7187C25.4062 15.75 26.0312 16.6562 26.9062 17.2188C27.5 17.625 28.2188 17.8438 28.9688 17.8437C28.9688 17.8437 28.9688 17.8437 29 17.8437V20.5625Z" fill="white"/>
</svg>
