<svg width="18" height="19" viewBox="0 0 18 19" fill="none" xmlns="http://www.w3.org/2000/svg">
<path d="M9 0.25C13.957 0.25 18 4.29297 18 9.25C18 14.2422 13.957 18.25 9 18.25C4.00781 18.25 0 14.2422 0 9.25C0 7.38672 0.5625 5.66406 1.54688 4.22266C1.79297 3.83594 2.32031 3.73047 2.70703 3.97656C3.09375 4.25781 3.19922 4.78516 2.91797 5.17188C2.14453 6.33203 1.6875 7.73828 1.6875 9.25C1.6875 13.293 4.95703 16.5625 9 16.5625C13.0078 16.5625 16.3125 13.293 16.3125 9.25C16.3125 5.52344 13.4648 2.42969 9.84375 2.00781V3.90625C9.84375 4.39844 9.45703 4.75 9 4.75C8.50781 4.75 8.15625 4.39844 8.15625 3.90625V1.09375C8.15625 0.636719 8.50781 0.25 9 0.25ZM6.78516 5.83984L9.59766 8.65234C9.91406 9.00391 9.91406 9.53125 9.59766 9.84766C9.24609 10.1992 8.71875 10.1992 8.40234 9.84766L5.58984 7.03516C5.23828 6.71875 5.23828 6.19141 5.58984 5.83984C5.90625 5.52344 6.43359 5.52344 6.78516 5.83984Z" fill="white"/>
</svg>
