<svg width="7" height="11" viewBox="0 0 7 11" fill="none" xmlns="http://www.w3.org/2000/svg">
<path d="M6.27344 5.85156L1.66406 10.3828C1.58594 10.4609 1.50781 10.5 1.35156 10.5C1.23438 10.5 1.11719 10.4609 1 10.3828L0.726563 10.0703C0.648438 9.99219 0.570313 9.875 0.570313 9.75781C0.570313 9.60156 0.648438 9.48438 0.726563 9.40625L4.71094 5.5L0.726563 1.59375C0.648438 1.47656 0.609375 1.35938 0.609375 1.24219C0.609375 1.08594 0.648438 1.00781 0.726563 0.929688L1 0.65625C1.11719 0.539062 1.23438 0.5 1.35156 0.5C1.50781 0.5 1.58594 0.539062 1.66406 0.65625L6.27344 5.1875C6.35156 5.26562 6.39063 5.34375 6.39063 5.5C6.39063 5.61719 6.35156 5.73438 6.27344 5.85156Z" fill="white"/>
</svg>
