<svg width="7" height="11" viewBox="0 0 7 11" fill="none" xmlns="http://www.w3.org/2000/svg">
<path d="M0.726562 5.14844L5.33594 0.617188C5.41406 0.539062 5.49219 0.5 5.64844 0.5C5.76562 0.5 5.88281 0.539062 6 0.617188L6.27344 0.929688C6.35156 1.00781 6.42969 1.125 6.42969 1.24219C6.42969 1.39844 6.35156 1.51562 6.27344 1.59375L2.28906 5.5L6.27344 9.40625C6.35156 9.52344 6.39062 9.64062 6.39062 9.75781C6.39062 9.91406 6.35156 9.99219 6.27344 10.0703L6 10.3438C5.88281 10.4609 5.76562 10.5 5.64844 10.5C5.49219 10.5 5.41406 10.4609 5.33594 10.3438L0.726562 5.8125C0.648438 5.73438 0.609375 5.65625 0.609375 5.5C0.609375 5.38281 0.648438 5.26562 0.726562 5.14844Z" fill="white"/>
</svg>
