<svg width="14" height="15" viewBox="0 0 14 15" fill="none" xmlns="http://www.w3.org/2000/svg">
<path d="M1.75 13.4375H7.875C8.09375 13.4375 8.3125 13.2461 8.3125 13V11.25H9.625V13C9.625 13.9844 8.83203 14.75 7.875 14.75H1.75C0.765625 14.75 0 13.9844 0 13V6.875C0 5.91797 0.765625 5.125 1.75 5.125H3.5V6.4375H1.75C1.50391 6.4375 1.3125 6.65625 1.3125 6.875V13C1.3125 13.2461 1.50391 13.4375 1.75 13.4375ZM6.125 9.0625H12.25C12.4688 9.0625 12.6875 8.87109 12.6875 8.625V2.5C12.6875 2.28125 12.4688 2.0625 12.25 2.0625H6.125C5.87891 2.0625 5.6875 2.28125 5.6875 2.5V8.625C5.6875 8.87109 5.87891 9.0625 6.125 9.0625ZM4.375 8.625V2.5C4.375 1.54297 5.14062 0.75 6.125 0.75H12.25C13.207 0.75 14 1.54297 14 2.5V8.625C14 9.60938 13.207 10.375 12.25 10.375H6.125C5.14062 10.375 4.375 9.60938 4.375 8.625Z" fill="#3D3D3D"/>
</svg>
