<svg width="20" height="20" viewBox="0 0 20 20" fill="none" xmlns="http://www.w3.org/2000/svg">
<path d="M11.125 16.4023C11.2656 16.8594 11.7227 17.1055 12.1797 17C12.6367 16.8594 12.8828 16.4023 12.7773 15.9453L12.6016 15.3828C12.4258 14.6445 12.1094 13.9766 11.7227 13.3789C11.6172 13.2031 11.6172 12.9922 11.7227 12.8164C11.8281 12.6055 12.0039 12.5 12.2148 12.5H16.75C17.3477 12.5 17.875 12.0078 17.875 11.375C17.875 10.9883 17.6641 10.6367 17.3477 10.4258C17.1016 10.2852 16.9961 9.93359 17.1367 9.6875C17.2422 9.51172 17.3125 9.33594 17.3125 9.125C17.3125 8.70312 17.0664 8.31641 16.6797 8.14062C16.5391 8.07031 16.4336 7.92969 16.3984 7.75391C16.3633 7.57812 16.3984 7.4375 16.5039 7.29688C16.6445 7.08594 16.75 6.875 16.75 6.59375C16.75 6.10156 16.3984 5.67969 15.9766 5.53906C15.6953 5.43359 15.5195 5.15234 15.5898 4.87109C15.5898 4.80078 15.625 4.73047 15.625 4.625C15.625 4.02734 15.0977 3.5 14.5 3.5H11.3359C10.7734 3.5 10.2461 3.67578 9.78906 3.99219L8.41797 4.90625C8.10156 5.11719 7.85547 5.36328 7.64453 5.67969C7.46875 5.96094 7.11719 6.03125 6.87109 5.85547C6.58984 5.67969 6.51953 5.32812 6.69531 5.08203C6.97656 4.625 7.36328 4.23828 7.78516 3.95703L9.15625 3.04297C9.78906 2.62109 10.5625 2.375 11.3359 2.375H14.5C15.7305 2.375 16.75 3.39453 16.75 4.625V4.66016C17.418 5.04688 17.875 5.78516 17.875 6.59375C17.875 6.91016 17.8047 7.22656 17.6992 7.47266C18.1211 7.89453 18.4375 8.49219 18.4375 9.125C18.4375 9.37109 18.4023 9.58203 18.332 9.79297C18.7188 10.2148 19 10.7773 19 11.375C19 12.6406 17.9805 13.625 16.75 13.625H13.1641C13.375 14.1172 13.5508 14.5742 13.6914 15.0664L13.8672 15.6641C14.1484 16.7188 13.5156 17.7734 12.4609 18.0898C11.4062 18.3711 10.3516 17.7383 10.0352 16.6836L9.89453 16.1211C9.57812 14.9609 8.83984 13.9766 7.85547 13.3438L7.75 13.2734L8.03125 12.8164L7.75 13.2734C7.32812 12.9922 6.97656 12.6758 6.69531 12.2891C6.51953 12.0078 6.58984 11.6562 6.83594 11.4805C7.08203 11.3047 7.43359 11.375 7.60938 11.6211C7.82031 11.9023 8.06641 12.1484 8.34766 12.3242L8.45312 12.3945C9.68359 13.168 10.5977 14.3984 10.9844 15.8047L11.125 16.4023ZM2.125 13.625H4.375V5.75H2.125V13.625ZM1 13.625V5.75C1 5.15234 1.49219 4.625 2.125 4.625H4.375C4.97266 4.625 5.5 5.15234 5.5 5.75V13.625C5.5 14.2578 4.97266 14.75 4.375 14.75H2.125C1.49219 14.75 1 14.2578 1 13.625Z" fill="white"/>
</svg>
