<svg width="18" height="18" viewBox="0 0 18 18" fill="none" xmlns="http://www.w3.org/2000/svg">
<g clip-path="url(#clip0_303_3233)">
<path d="M14.0724 9.13927C13.9835 9.05047 13.8631 9.00058 13.7375 9.00058C13.6119 9.00058 13.4914 9.05047 13.4026 9.13927L9.47479 13.0671V2.36843C9.47479 2.2428 9.42488 2.12232 9.33605 2.03348C9.24722 1.94465 9.12674 1.89474 9.00111 1.89474C8.87548 1.89474 8.75499 1.94465 8.66616 2.03348C8.57733 2.12232 8.52742 2.2428 8.52742 2.36843V13.0671L4.59963 9.13927C4.5103 9.05299 4.39064 9.00524 4.26644 9.00632C4.14224 9.0074 4.02344 9.05722 3.93561 9.14504C3.84779 9.23287 3.79797 9.35167 3.79689 9.47587C3.79581 9.60007 3.84356 9.71972 3.92984 9.80906L8.66669 14.5459C8.71062 14.5902 8.7629 14.6253 8.8205 14.6492C8.8781 14.6732 8.93987 14.6855 9.00225 14.6854C9.06463 14.6853 9.12637 14.6728 9.1839 14.6487C9.24143 14.6246 9.29361 14.5894 9.33742 14.545L14.0743 9.80811C14.1631 9.71928 14.213 9.59882 14.213 9.47322C14.213 9.34761 14.1631 9.22715 14.0743 9.13832L14.0724 9.13927Z" fill="#3D3D3D"/>
<path d="M16.5789 18H1.42105C0.637579 18 0 17.3624 0 16.579V14.6842C0 14.5586 0.0499059 14.4381 0.138739 14.3493C0.227572 14.2604 0.348055 14.2105 0.473684 14.2105C0.599313 14.2105 0.719797 14.2604 0.80863 14.3493C0.897463 14.4381 0.947368 14.5586 0.947368 14.6842V16.579C0.947368 16.7046 0.997274 16.8251 1.08611 16.9139C1.13009 16.9579 1.18231 16.9928 1.23978 17.0166C1.29725 17.0404 1.35885 17.0526 1.42105 17.0526H16.5789C16.7046 17.0526 16.8251 17.0027 16.9139 16.9139C17.0027 16.8251 17.0526 16.7046 17.0526 16.579V14.6842C17.0526 14.5586 17.1025 14.4381 17.1914 14.3493C17.2802 14.2604 17.4007 14.2105 17.5263 14.2105C17.6519 14.2105 17.7724 14.2604 17.8613 14.3493C17.9501 14.4381 18 14.5586 18 14.6842V16.579C18 17.3624 17.3624 18 16.5789 18Z" fill="#3D3D3D"/>
</g>
<defs>
<clipPath id="clip0_303_3233">
<rect width="18" height="18" fill="white"/>
</clipPath>
</defs>
</svg>
