<svg width="15" height="11" viewBox="0 0 15 11" fill="none" xmlns="http://www.w3.org/2000/svg">
<path d="M2.5 1.8125C2.25391 1.8125 2.0625 2.03125 2.0625 2.25V2.87891L6.76562 6.73438C7.33984 7.19922 8.13281 7.19922 8.70703 6.73438L13.4375 2.87891V2.25C13.4375 2.03125 13.2188 1.8125 13 1.8125H2.5ZM2.0625 4.57422V9.25C2.0625 9.49609 2.25391 9.6875 2.5 9.6875H13C13.2188 9.6875 13.4375 9.49609 13.4375 9.25V4.57422L9.55469 7.74609C8.48828 8.62109 6.98438 8.62109 5.94531 7.74609L2.0625 4.57422ZM0.75 2.25C0.75 1.29297 1.51562 0.5 2.5 0.5H13C13.957 0.5 14.75 1.29297 14.75 2.25V9.25C14.75 10.2344 13.957 11 13 11H2.5C1.51562 11 0.75 10.2344 0.75 9.25V2.25Z" fill="#3D3D3D"/>
</svg>
