<svg width="21" height="19" viewBox="0 0 21 19" fill="none" xmlns="http://www.w3.org/2000/svg">
<path d="M0.5 15.75C0.5 15.4375 0.773438 15.125 1.125 15.125H3.66406C3.97656 13.7188 5.22656 12.625 6.75 12.625C8.23438 12.625 9.52344 13.7188 9.79688 15.125H19.875C20.1875 15.125 20.5 15.4375 20.5 15.75C20.5 16.1016 20.1875 16.375 19.875 16.375H9.79688C9.52344 17.8203 8.23438 18.875 6.75 18.875C5.22656 18.875 3.97656 17.8203 3.66406 16.375H1.125C0.773438 16.375 0.5 16.1016 0.5 15.75ZM4.875 15.75C4.875 16.4531 5.22656 17.0391 5.8125 17.3906C6.35938 17.7422 7.10156 17.7422 7.6875 17.3906C8.23438 17.0391 8.625 16.4531 8.625 15.75C8.625 15.0859 8.23438 14.5 7.6875 14.1484C7.10156 13.7969 6.35938 13.7969 5.8125 14.1484C5.22656 14.5 4.875 15.0859 4.875 15.75ZM12.375 9.5C12.375 10.2031 12.7266 10.7891 13.3125 11.1406C13.8594 11.4922 14.6016 11.4922 15.1875 11.1406C15.7344 10.7891 16.125 10.2031 16.125 9.5C16.125 8.83594 15.7344 8.25 15.1875 7.89844C14.6016 7.54688 13.8594 7.54688 13.3125 7.89844C12.7266 8.25 12.375 8.83594 12.375 9.5ZM14.25 6.375C15.7344 6.375 17.0234 7.46875 17.2969 8.875H19.875C20.1875 8.875 20.5 9.1875 20.5 9.5C20.5 9.85156 20.1875 10.125 19.875 10.125H17.2969C17.0234 11.5703 15.7344 12.625 14.25 12.625C12.7266 12.625 11.4766 11.5703 11.1641 10.125H1.125C0.773438 10.125 0.5 9.85156 0.5 9.5C0.5 9.1875 0.773438 8.875 1.125 8.875H11.1641C11.4766 7.46875 12.7266 6.375 14.25 6.375ZM8 5.125C8.66406 5.125 9.25 4.77344 9.60156 4.1875C9.95312 3.64062 9.95312 2.89844 9.60156 2.3125C9.25 1.76562 8.66406 1.375 8 1.375C7.29688 1.375 6.71094 1.76562 6.35938 2.3125C6.00781 2.89844 6.00781 3.64062 6.35938 4.1875C6.71094 4.77344 7.29688 5.125 8 5.125ZM11.0469 2.625H19.875C20.1875 2.625 20.5 2.9375 20.5 3.25C20.5 3.60156 20.1875 3.875 19.875 3.875H11.0469C10.7734 5.32031 9.48438 6.375 8 6.375C6.47656 6.375 5.22656 5.32031 4.91406 3.875H1.125C0.773438 3.875 0.5 3.60156 0.5 3.25C0.5 2.9375 0.773438 2.625 1.125 2.625H4.91406C5.22656 1.21875 6.47656 0.125 8 0.125C9.48438 0.125 10.7734 1.21875 11.0469 2.625Z" fill="#3D3D3D"/>
</svg>
