<svg width="20" height="19" viewBox="0 0 20 19" fill="none" xmlns="http://www.w3.org/2000/svg">
<path d="M1.83594 11.2578C0.664062 10.1641 0 8.60156 0 6.96094V6.76562C0 4.03125 1.95312 1.6875 4.64844 1.25781C6.44531 0.945312 8.24219 1.53125 9.53125 2.78125L10 3.25L10.4688 2.78125C11.7188 1.53125 13.5547 0.945312 15.3125 1.25781C18.0078 1.6875 20 4.03125 20 6.76562V6.96094C20 8.60156 19.2969 10.1641 18.125 11.2578L11.0547 17.8594C10.7812 18.1328 10.3906 18.25 10 18.25C9.57031 18.25 9.17969 18.1328 8.90625 17.8594L1.83594 11.2578Z" fill="#CF1F33"/>
</svg>
