<svg width="18" height="17" viewBox="0 0 18 17" fill="none" xmlns="http://www.w3.org/2000/svg">
<path d="M7.91016 15.7383L7.83984 15.6328L1.6875 9.9375C0.597656 8.91797 0 7.51172 0 6.03516V5.92969C0 3.46875 1.75781 1.32422 4.18359 0.867188C5.55469 0.585938 6.96094 0.902344 8.12109 1.71094C8.4375 1.92188 8.71875 2.20312 9 2.48438C9.14062 2.34375 9.28125 2.16797 9.45703 2.02734C9.59766 1.92188 9.73828 1.81641 9.87891 1.71094C11.0039 0.902344 12.4102 0.585938 13.7812 0.867188C16.2422 1.32422 18 3.46875 18 5.92969V6.03516C18 7.51172 17.3672 8.91797 16.2773 9.9375L10.125 15.6328L10.0547 15.7383C9.77344 15.9844 9.38672 16.1602 9 16.1602C8.57812 16.1602 8.22656 15.9844 7.91016 15.7383ZM8.40234 4.34766C8.36719 4.34766 8.36719 4.34766 8.36719 4.3125L7.73438 3.60938C6.92578 2.69531 5.69531 2.30859 4.5 2.51953C2.84766 2.83594 1.6875 4.27734 1.6875 5.92969V6.03516C1.6875 7.05469 2.07422 8.00391 2.8125 8.67188L9 14.4023L15.1523 8.67188C15.8906 8.00391 16.3125 7.05469 16.3125 6.03516V5.92969C16.3125 4.27734 15.1172 2.83594 13.4648 2.51953C12.2695 2.30859 11.0391 2.69531 10.2305 3.60938L9.59766 4.3125C9.59766 4.34766 9.59766 4.34766 9.5625 4.38281C9.42188 4.52344 9.21094 4.62891 9 4.62891C8.75391 4.62891 8.54297 4.52344 8.40234 4.38281V4.34766Z" fill="white"/>
</svg>
