<svg width="20" height="19" viewBox="0 0 20 19" fill="none" xmlns="http://www.w3.org/2000/svg">
<path d="M9.53125 4.61719L9.0625 4.10938L8.86719 3.91406C7.85156 2.78125 6.32812 2.23438 4.84375 2.50781C2.73438 2.89844 1.25 4.69531 1.25 6.80469V6.96094C1.25 8.21094 1.75781 9.42188 2.69531 10.2812L9.88281 16.9609C9.88281 17 9.92188 17 10 17C10.0391 17 10.0781 17 10.1172 16.9609L17.3047 10.2812C18.2031 9.42188 18.75 8.21094 18.75 6.96094V6.80469C18.75 4.69531 17.2266 2.89844 15.1562 2.50781C13.6328 2.23438 12.1094 2.78125 11.0938 3.91406L10.9375 4.10938L10.4688 4.61719C10.3516 4.73438 10.1562 4.8125 10 4.8125C9.80469 4.8125 9.64844 4.73438 9.53125 4.61719ZM10.8594 2.39062C12.1484 1.41406 13.75 0.984375 15.3516 1.29688C18.0469 1.76562 20 4.10938 20 6.80469V6.96094C20 8.36719 19.4531 9.69531 18.5547 10.75C18.4375 10.9062 18.2812 11.0625 18.125 11.1797L10.9375 17.8984C10.8984 17.8984 10.8984 17.9375 10.8594 17.9766C10.5859 18.1719 10.3125 18.25 10 18.25C9.60938 18.25 9.29688 18.1328 9.02344 17.8984L1.83594 11.1797C1.67969 11.0625 1.52344 10.9062 1.40625 10.75C0.507812 9.69531 0 8.36719 0 6.96094V6.80469C0 4.10938 1.91406 1.76562 4.60938 1.29688C6.21094 0.984375 7.8125 1.41406 9.10156 2.39062C9.33594 2.58594 9.60938 2.82031 9.80469 3.09375L9.96094 3.25L10.1562 3.09375C10.3125 2.89844 10.4688 2.70312 10.6641 2.54688C10.7422 2.50781 10.8203 2.42969 10.8594 2.39062Z" fill="white"/>
</svg>
