<svg width="17" height="13" viewBox="0 0 17 13" fill="none" xmlns="http://www.w3.org/2000/svg">
<path opacity="0.55" d="M1.89062 0.640625L4.51562 2.67969C5.57031 1.88281 6.88281 1.25 8.5 1.25C10.375 1.25 11.8984 2.11719 13 3.14844C14.1016 4.15625 14.8281 5.375 15.1797 6.21875C15.25 6.40625 15.25 6.61719 15.1797 6.80469C14.875 7.55469 14.2422 8.63281 13.3047 9.57031L15.7656 11.5156C16.0234 11.7031 16.0703 12.0547 15.8594 12.2891C15.6719 12.5469 15.3203 12.5937 15.0859 12.3828L1.21094 1.50781C0.953125 1.32031 0.90625 0.96875 1.11719 0.734375C1.30469 0.476562 1.65625 0.429687 1.89062 0.640625ZM5.42969 3.40625L6.50781 4.25C7.04688 3.78125 7.72656 3.5 8.5 3.5C10.1406 3.5 11.5 4.85937 11.5 6.5C11.5 7.01562 11.3828 7.48437 11.1484 7.88281L12.4141 8.86719C13.2344 8.07031 13.7969 7.15625 14.0781 6.5C13.7734 5.79687 13.1406 4.8125 12.2266 3.96875C11.2656 3.07812 10.0234 2.375 8.5 2.375C7.30469 2.375 6.29688 2.79687 5.42969 3.40625ZM10.2344 7.17969C10.3281 6.96875 10.375 6.73437 10.375 6.5C10.375 5.46875 9.53125 4.625 8.5 4.625C8.47656 4.625 8.45312 4.625 8.45312 4.625C8.47656 4.76562 8.5 4.88281 8.5 5C8.5 5.25781 8.42969 5.46875 8.33594 5.67969L10.2344 7.17969ZM10.4688 10.2266L11.4531 11C10.5859 11.4687 9.60156 11.75 8.5 11.75C6.60156 11.75 5.07813 10.9062 3.97656 9.875C2.875 8.84375 2.14844 7.625 1.79688 6.80469C1.72656 6.61719 1.72656 6.40625 1.79688 6.21875C2.03125 5.67969 2.40625 5 2.94531 4.29688L3.8125 5C3.39063 5.53906 3.08594 6.07812 2.89844 6.5C3.22656 7.20312 3.83594 8.21094 4.75 9.05469C5.71094 9.94531 6.95313 10.625 8.5 10.625C9.20313 10.625 9.85938 10.4844 10.4688 10.2266ZM5.5 6.5H5.47656C5.47656 6.45312 5.5 6.38281 5.5 6.3125L6.8125 7.34375C7.04688 7.83594 7.51563 8.21094 8.07813 8.32812L9.39063 9.38281C9.10938 9.45312 8.80469 9.5 8.5 9.5C6.83594 9.5 5.5 8.16406 5.5 6.5Z" fill="#3D3D3D"/>
</svg>
