<svg width="20" height="20" viewBox="0 0 20 20" fill="none" xmlns="http://www.w3.org/2000/svg">
<path d="M11.125 4.13281L10.9844 4.73047C10.5977 6.13672 9.68359 7.36719 8.45312 8.14062L8.34766 8.21094C8.06641 8.38672 7.82031 8.63281 7.60938 8.91406C7.43359 9.16016 7.08203 9.23047 6.83594 9.05469C6.58984 8.84375 6.51953 8.49219 6.69531 8.24609C6.97656 7.85938 7.32812 7.54297 7.75 7.26172L7.85547 7.19141C8.83984 6.55859 9.57812 5.57422 9.89453 4.41406L10.0352 3.85156C10.3516 2.79688 11.4062 2.16406 12.4609 2.44531C13.5156 2.76172 14.1484 3.81641 13.8672 4.87109L13.6914 5.46875C13.5508 5.96094 13.375 6.41797 13.1641 6.875H16.75C17.9805 6.875 19 7.89453 19 9.125C19 9.75781 18.7188 10.3203 18.332 10.7422C18.4023 10.9531 18.4375 11.1641 18.4375 11.375C18.4375 12.043 18.1211 12.6406 17.6992 13.0625C17.8047 13.3086 17.875 13.625 17.875 13.9062C17.875 14.75 17.418 15.4883 16.75 15.875C16.75 17.1406 15.7305 18.125 14.5 18.125H11.3359C10.5625 18.125 9.78906 17.9141 9.15625 17.4922L7.78516 16.5781C7.36328 16.2617 6.97656 15.9102 6.69531 15.4531C6.51953 15.207 6.58984 14.8555 6.87109 14.6797C7.11719 14.5039 7.46875 14.5742 7.64453 14.8555C7.85547 15.1719 8.10156 15.418 8.41797 15.6289L9.78906 16.543C10.2461 16.8594 10.7734 17 11.3359 17H14.5C15.0977 17 15.625 16.5078 15.625 15.875C15.625 15.8047 15.5898 15.7344 15.5898 15.6641C15.5195 15.3828 15.6953 15.1016 15.9766 14.9961C16.3984 14.8555 16.75 14.4336 16.75 13.9414C16.75 13.6602 16.6445 13.4141 16.5039 13.2383C16.3984 13.0977 16.3633 12.957 16.3984 12.7812C16.4336 12.6055 16.5391 12.4648 16.6797 12.3945C17.0664 12.2188 17.3125 11.832 17.3125 11.4102C17.3125 11.1992 17.2422 10.9883 17.1367 10.8477C16.9961 10.5664 17.1016 10.25 17.3477 10.1094C17.6641 9.89844 17.875 9.54688 17.875 9.16016C17.875 8.52734 17.3477 8.03516 16.75 8.03516H12.2148C12.0039 8.03516 11.8281 7.89453 11.7227 7.71875C11.6172 7.54297 11.6172 7.33203 11.7227 7.15625C12.1094 6.55859 12.4258 5.85547 12.6016 5.15234L12.7773 4.58984C12.8828 4.13281 12.6367 3.67578 12.1797 3.53516C11.7227 3.42969 11.2656 3.67578 11.125 4.13281ZM2.125 9.125V17H4.375V9.125H2.125ZM1 9.125C1 8.52734 1.49219 8 2.125 8H4.375C4.97266 8 5.5 8.52734 5.5 9.125V17C5.5 17.6328 4.97266 18.125 4.375 18.125H2.125C1.49219 18.125 1 17.6328 1 17V9.125Z" fill="white"/>
</svg>
