<svg width="16" height="14" viewBox="0 0 16 14" fill="none" xmlns="http://www.w3.org/2000/svg">
<path d="M6 10.4375L9.4375 7L6 3.59375V5.25C6 5.6875 5.65625 6 5.25 6H1.5V8H5.25C5.65625 8 6 8.34375 6 8.75V10.4375ZM11 7C11 7.375 10.8438 7.71875 10.5938 7.96875L6.96875 11.5938C6.6875 11.875 6.3125 12 5.9375 12C5.125 12 4.5 11.375 4.5 10.5625V9.5H1.5C0.65625 9.5 0 8.84375 0 8V6C0 5.1875 0.65625 4.5 1.5 4.5H4.5V3.46875C4.5 2.65625 5.125 2 5.9375 2C6.3125 2 6.6875 2.15625 6.96875 2.4375L10.5938 6.0625C10.8438 6.3125 11 6.65625 11 7ZM10.75 12.5H13.25C13.9375 12.5 14.5 11.9688 14.5 11.25V2.75C14.5 2.0625 13.9375 1.5 13.25 1.5H10.75C10.3125 1.5 10 1.1875 10 0.75C10 0.34375 10.3125 0 10.75 0H13.25C14.75 0 16 1.25 16 2.75V11.25C16 12.7812 14.75 14 13.25 14H10.75C10.3125 14 10 13.6875 10 13.25C10 12.8438 10.3125 12.5 10.75 12.5Z" fill="#3D3D3D"/>
</svg>
