<svg width="16" height="14" viewBox="0 0 16 14" fill="none" xmlns="http://www.w3.org/2000/svg">
<path d="M11 3.59375V5.25C11 5.6875 10.6562 6 10.25 6H6.5V8H10.25C10.6562 8 11 8.34375 11 8.75V10.4375L14.4375 7L11 3.59375ZM16 7C16 7.375 15.8438 7.71875 15.5938 7.96875L11.9688 11.5938C11.6875 11.875 11.3125 12 10.9375 12C10.125 12 9.5 11.375 9.5 10.5625V9.5H6.5C5.65625 9.5 5 8.84375 5 8V6C5 5.1875 5.65625 4.5 6.5 4.5H9.5V3.46875C9.5 2.65625 10.125 2 10.9375 2C11.3125 2 11.6875 2.15625 11.9688 2.4375L15.5938 6.0625C15.8438 6.3125 16 6.65625 16 7ZM5.25 1.5H2.75C2.03125 1.5 1.5 2.0625 1.5 2.75V11.25C1.5 11.9688 2.03125 12.5 2.75 12.5H5.25C5.65625 12.5 6 12.8438 6 13.25C6 13.6875 5.65625 14 5.25 14H2.75C1.21875 14 0 12.7812 0 11.25V2.75C0 1.25 1.21875 0 2.75 0H5.25C5.65625 0 6 0.34375 6 0.75C6 1.1875 5.65625 1.5 5.25 1.5Z" fill="#3D3D3D"/>
</svg>
