<svg width="33" height="32" viewBox="0 0 33 32" fill="none" xmlns="http://www.w3.org/2000/svg">
<path d="M19.625 8.5C19.625 6.85938 18.2656 5.5 16.625 5.5C14.9375 5.5 13.625 6.85938 13.625 8.5V16C13.625 17.6875 14.9375 19 16.625 19C18.2656 19 19.625 17.6875 19.625 16V8.5ZM12.125 8.5C12.125 6.01562 14.1406 4 16.625 4C19.1094 4 21.125 6.01562 21.125 8.5V16C21.125 18.4844 19.1094 20.5 16.625 20.5C14.1406 20.5 12.125 18.4844 12.125 16V8.5ZM10.625 13.75V16C10.625 19.3281 13.2969 22 16.625 22C19.9062 22 22.625 19.3281 22.625 16V13.75C22.625 13.375 22.9531 13 23.375 13C23.75 13 24.125 13.375 24.125 13.75V16C24.125 19.8906 21.125 23.125 17.375 23.5V26.5H20.375C20.75 26.5 21.125 26.875 21.125 27.25C21.125 27.6719 20.75 28 20.375 28H16.625H12.875C12.4531 28 12.125 27.6719 12.125 27.25C12.125 26.875 12.4531 26.5 12.875 26.5H15.875V23.5C12.0781 23.125 9.125 19.8906 9.125 16V13.75C9.125 13.375 9.45312 13 9.875 13C10.25 13 10.625 13.375 10.625 13.75Z" fill="#3D3D3D"/>
</svg>
