<svg width="33" height="32"  xmlns="http://www.w3.org/2000/svg" fill="none" viewBox="0 0 33 33">
<path d="M28.375 5.07812V10.375V10.4219V21.25C28.375 23.3594 26.3594 25 23.875 25C21.3906 25 19.375 23.3594 19.375 21.25C19.375 19.1875 21.3906 17.5 23.875 17.5C25 17.5 26.0781 17.875 26.875 18.4844V11.4062L13.375 15.5781V24.25C13.375 26.3594 11.3594 28 8.875 28C6.39062 28 4.375 26.3594 4.375 24.25C4.375 22.1875 6.39062 20.5 8.875 20.5C10 20.5 11.0781 20.875 11.875 21.4844V14.875V9.25C11.875 8.92188 12.0625 8.64062 12.3906 8.54688L26.9688 4.04688C27.0625 4.04688 27.1562 4 27.2969 4C27.8594 4 28.375 4.51562 28.375 5.07812ZM26.875 21.25C26.875 20.2656 25.7969 19 23.875 19C21.9062 19 20.875 20.2656 20.875 21.25C20.875 22.2812 21.9062 23.5 23.875 23.5C25.7969 23.5 26.875 22.2812 26.875 21.25ZM11.875 24.25C11.875 23.2656 10.7969 22 8.875 22C6.90625 22 5.875 23.2656 5.875 24.25C5.875 25.2812 6.90625 26.5 8.875 26.5C10.7969 26.5 11.875 25.2812 11.875 24.25ZM26.875 9.85938V5.6875L13.375 9.8125V13.9844L26.875 9.85938Z" fill="#3D3D3D"/>
</svg>