<svg width="33" height="32" viewBox="0 0 33 32" fill="none" xmlns="http://www.w3.org/2000/svg">
<path d="M21.2344 5.5C20.3906 5.5 19.6406 5.92188 19.1719 6.625L17.0625 10H17.625H21.375C22.5938 10 23.625 9.01562 23.625 7.75C23.625 6.53125 22.5938 5.5 21.375 5.5H21.2344ZM15.1406 10L13.0312 6.625C12.5625 5.92188 11.8125 5.5 10.9688 5.5H10.875C9.60938 5.5 8.625 6.53125 8.625 7.75C8.625 9.01562 9.60938 10 10.875 10H14.625H15.1406ZM16.125 8.73438L17.9062 5.82812C18.6562 4.70312 19.875 4 21.2344 4H21.375C23.4375 4 25.125 5.6875 25.125 7.75C25.125 8.59375 24.8438 9.39062 24.375 10H25.875C27.0938 10 28.125 11.0312 28.125 12.25V15.25C28.125 16.2344 27.4688 17.0781 26.625 17.4062V17.5V25C26.625 26.6875 25.2656 28 23.625 28H8.625C6.9375 28 5.625 26.6875 5.625 25V17.5V17.4062C4.73438 17.0781 4.125 16.2344 4.125 15.25V12.25C4.125 11.0312 5.10938 10 6.375 10H7.875C7.40625 9.39062 7.125 8.59375 7.125 7.75C7.125 5.6875 8.76562 4 10.875 4H10.9688C12.3281 4 13.5938 4.70312 14.2969 5.82812L16.125 8.73438ZM10.875 11.5H6.375C5.95312 11.5 5.625 11.875 5.625 12.25V15.25C5.625 15.6719 5.95312 16 6.375 16H7.125H15.375V11.5H14.625H10.875ZM16.875 11.5V16H25.125H25.875C26.25 16 26.625 15.6719 26.625 15.25V12.25C26.625 11.875 26.25 11.5 25.875 11.5H21.375H17.625H16.875ZM15.375 17.5H7.125V25C7.125 25.8438 7.78125 26.5 8.625 26.5H15.375V17.5ZM16.875 26.5H23.625C24.4219 26.5 25.125 25.8438 25.125 25V17.5H16.875V26.5Z" fill="#3D3D3D"/>
</svg>
