<svg width="33" height="33" viewBox="0 0 33 33" fill="none" xmlns="http://www.w3.org/2000/svg">
<path d="M32.125 3L9.5 9H28.875C31.0625 9 32.875 10.8125 32.875 13V29C32.875 31.25 31.0625 33 28.875 33H4.875C2.625 33 0.875 31.25 0.875 29V16V13.125V13C0.875 12.8125 0.875 12.625 0.875 12.375C1.1875 10.4375 2.625 8.8125 4.5625 8.25L31.5625 1.0625C32.125 0.9375 32.6875 1.25 32.8125 1.75C32.9375 2.3125 32.625 2.875 32.125 3ZM2.875 13.125V16V29C2.875 30.125 3.75 31 4.875 31H28.875C29.9375 31 30.875 30.125 30.875 29V13C30.875 11.9375 29.9375 11 28.875 11H4.875C3.875 11 3 11.75 2.875 12.6875C2.875 12.8125 2.875 12.9375 2.875 13.125ZM6.875 16H12.875C13.375 16 13.875 16.5 13.875 17C13.875 17.5625 13.375 18 12.875 18H6.875C6.3125 18 5.875 17.5625 5.875 17C5.875 16.5 6.3125 16 6.875 16ZM5.875 20H13.875C14.375 20 14.875 20.5 14.875 21C14.875 21.5625 14.375 22 13.875 22H5.875C5.3125 22 4.875 21.5625 4.875 21C4.875 20.5 5.3125 20 5.875 20ZM6.875 24H12.875C13.375 24 13.875 24.5 13.875 25C13.875 25.5625 13.375 26 12.875 26H6.875C6.3125 26 5.875 25.5625 5.875 25C5.875 24.5 6.3125 24 6.875 24ZM22.875 25C24.25 25 25.5625 24.25 26.3125 23C27 21.8125 27 20.25 26.3125 19C25.5625 17.8125 24.25 17 22.875 17C21.4375 17 20.125 17.8125 19.375 19C18.6875 20.25 18.6875 21.8125 19.375 23C20.125 24.25 21.4375 25 22.875 25ZM16.875 21C16.875 18.875 18 16.9375 19.875 15.8125C21.6875 14.75 24 14.75 25.875 15.8125C27.6875 16.9375 28.875 18.875 28.875 21C28.875 23.1875 27.6875 25.125 25.875 26.25C24 27.3125 21.6875 27.3125 19.875 26.25C18 25.125 16.875 23.1875 16.875 21Z" fill="#D11F33"/>
</svg>
