<svg width="18" height="17" viewBox="0 0 18 17" fill="none" xmlns="http://www.w3.org/2000/svg">
<path d="M10.4062 4.875H10.125H6.1875C3.375 4.875 1.125 7.16016 1.125 9.9375C1.125 11.5898 1.65234 12.75 2.32031 13.5938C2.25 13.3477 2.25 13.0664 2.25 12.75C2.25 10.2891 4.25391 8.25 6.75 8.25H10.125H10.4062C10.8633 8.25 11.25 8.63672 11.25 9.09375V9.375V9.9375V11.625L16.875 6.5625L11.25 1.5V3.1875V3.75V4.03125C11.25 4.52344 10.8633 4.875 10.4062 4.875ZM10.125 9.9375V9.375H9H6.75C4.88672 9.375 3.375 10.8867 3.375 12.75C3.375 13.8398 3.79688 14.4375 4.14844 14.7539C4.32422 14.9297 4.5 15.1758 4.5 15.457C4.5 15.8438 4.18359 16.125 3.79688 16.125C3.69141 16.125 3.58594 16.125 3.51562 16.0898C2.84766 15.7031 0 13.9453 0 9.9375C0 6.52734 2.74219 3.75 6.1875 3.75H9H10.125V3.1875V2.625V1.5C10.125 1.07812 10.3711 0.65625 10.793 0.480469C11.1797 0.304688 11.6719 0.375 11.9883 0.691406L17.6133 5.75391C17.8594 5.96484 18 6.24609 18 6.5625C18 6.91406 17.8594 7.19531 17.6133 7.40625L11.9883 12.4688C11.6719 12.7852 11.1797 12.8555 10.793 12.6797C10.3711 12.5039 10.125 12.082 10.125 11.625V10.5V9.9375Z" fill="#3D3D3D"/>
</svg>
