<svg width="15" height="11" viewBox="0 0 15 11" fill="none" xmlns="http://www.w3.org/2000/svg">
<path opacity="0.55" d="M7.75 1.375C6.20312 1.375 4.96094 2.07812 4 2.96875C3.08594 3.8125 2.47656 4.79688 2.14844 5.5C2.47656 6.20312 3.08594 7.21094 4 8.05469C4.96094 8.94531 6.20313 9.625 7.75 9.625C9.27344 9.625 10.5156 8.94531 11.4766 8.05469C12.3906 7.21094 13.0234 6.20312 13.3281 5.5C13.0234 4.79687 12.3906 3.8125 11.5 2.96875C10.5156 2.07812 9.27344 1.375 7.75 1.375ZM3.22656 2.14844C4.32812 1.11719 5.85156 0.25 7.75 0.25C9.625 0.25 11.1484 1.11719 12.25 2.14844C13.3516 3.17969 14.0781 4.375 14.4297 5.21875C14.5 5.40625 14.5 5.61719 14.4297 5.80469C14.0781 6.625 13.3516 7.84375 12.25 8.875C11.1484 9.90625 9.625 10.75 7.75 10.75C5.85156 10.75 4.32813 9.90625 3.22656 8.875C2.125 7.84375 1.39844 6.625 1.04688 5.80469C0.976563 5.61719 0.976563 5.40625 1.04688 5.21875C1.39844 4.375 2.125 3.15625 3.22656 2.14844ZM7.75 7.375C8.78125 7.375 9.625 6.55469 9.625 5.5C9.625 4.46875 8.78125 3.625 7.75 3.625C7.72656 3.625 7.70313 3.625 7.70313 3.625C7.72656 3.76562 7.75 3.88281 7.75 4C7.75 4.84375 7.07031 5.5 6.25 5.5C6.10938 5.5 5.99219 5.5 5.875 5.45312C5.875 5.47656 5.875 5.5 5.875 5.5C5.875 6.55469 6.69531 7.375 7.75 7.375ZM7.75 2.5C8.80469 2.5 9.78906 3.08594 10.3281 4C10.8672 4.9375 10.8672 6.08594 10.3281 7C9.78906 7.9375 8.80469 8.5 7.75 8.5C6.67188 8.5 5.6875 7.9375 5.14844 7C4.60938 6.08594 4.60938 4.9375 5.14844 4C5.6875 3.08594 6.67188 2.5 7.75 2.5Z" fill="#3D3D3D"/>
</svg>
