<svg width="14" height="3" viewBox="0 0 14 3" fill="none" xmlns="http://www.w3.org/2000/svg">
<path d="M13.875 1.25C13.875 1.88281 13.3477 2.375 12.75 2.375C12.1172 2.375 11.625 1.88281 11.625 1.25C11.625 0.652344 12.1172 0.125 12.75 0.125C13.3477 0.125 13.875 0.652344 13.875 1.25ZM8.25 1.25C8.25 1.88281 7.72266 2.375 7.125 2.375C6.49219 2.375 6 1.88281 6 1.25C6 0.652344 6.49219 0.125 7.125 0.125C7.72266 0.125 8.25 0.652344 8.25 1.25ZM1.5 2.375C0.867188 2.375 0.375 1.88281 0.375 1.25C0.375 0.652344 0.867188 0.125 1.5 0.125C2.09766 0.125 2.625 0.652344 2.625 1.25C2.625 1.88281 2.09766 2.375 1.5 2.375Z" fill="white"/>
</svg>
