<svg width="20" height="17" viewBox="0 0 20 17" fill="none" xmlns="http://www.w3.org/2000/svg">
<path d="M10.125 1.60547L5.30859 5.85938C5.20312 5.96484 5.0625 6 4.95703 6H1.96875C1.47656 6 1.125 6.38672 1.125 6.84375V9.65625C1.125 10.1484 1.47656 10.5 1.96875 10.5H4.95703C5.0625 10.5 5.20312 10.5703 5.30859 10.6406L10.125 14.9297V1.60547ZM9.49219 0.65625C9.66797 0.480469 9.91406 0.375 10.1953 0.375C10.7578 0.375 11.25 0.867188 11.25 1.42969V15.1055C11.25 15.668 10.7578 16.125 10.1953 16.125C9.91406 16.125 9.66797 16.0547 9.49219 15.8789L9.87891 15.457L9.49219 15.8789L4.71094 11.625H1.96875C0.878906 11.625 0 10.7461 0 9.65625V6.84375C0 5.78906 0.878906 4.875 1.96875 4.875H4.71094L9.49219 0.65625ZM13.6055 5.68359C13.7812 5.4375 14.1328 5.36719 14.3789 5.57812C15.1875 6.17578 15.75 7.16016 15.75 8.25C15.75 9.375 15.1875 10.3594 14.3789 10.957C14.1328 11.168 13.7812 11.0977 13.6055 10.8516C13.3945 10.6055 13.4648 10.2539 13.7109 10.0781C14.2734 9.65625 14.625 8.98828 14.625 8.25C14.625 7.54688 14.2734 6.87891 13.7109 6.45703C13.4648 6.28125 13.3945 5.92969 13.6055 5.68359ZM16.6641 3.04688C18.1406 4.3125 19.125 6.17578 19.125 8.25C19.125 10.3594 18.1406 12.2227 16.6641 13.4883C16.418 13.6641 16.0664 13.6289 15.8555 13.3828C15.6797 13.1719 15.7148 12.8203 15.9258 12.6094C17.1914 11.5898 18 10.0078 18 8.25C18 6.52734 17.1914 4.94531 15.9258 3.92578C15.7148 3.71484 15.6797 3.36328 15.8555 3.15234C16.0664 2.90625 16.418 2.87109 16.6641 3.04688Z" fill="white"/>
</svg>
