<svg width="13" height="13" viewBox="0 0 13 13" fill="none" xmlns="http://www.w3.org/2000/svg">
<path d="M10.8906 2.42969C12.0391 3.57812 12.75 5.08203 12.75 6.72266C12.75 10.0586 9.96094 12.793 6.59766 12.793C5.58594 12.793 4.60156 12.5195 3.69922 12.0547L0.5 12.875L1.34766 9.73047C0.828125 8.82812 0.527344 7.78906 0.527344 6.69531C0.527344 3.35938 3.26172 0.625 6.59766 0.625C8.23828 0.625 9.76953 1.28125 10.8906 2.42969ZM6.59766 11.7539C9.38672 11.7539 11.7109 9.48438 11.7109 6.72266C11.7109 5.35547 11.1367 4.09766 10.1797 3.14062C9.22266 2.18359 7.96484 1.66406 6.625 1.66406C3.83594 1.66406 1.56641 3.93359 1.56641 6.69531C1.56641 7.65234 1.83984 8.58203 2.33203 9.40234L2.46875 9.59375L1.94922 11.4531L3.86328 10.9336L4.02734 11.043C4.82031 11.5078 5.69531 11.7539 6.59766 11.7539ZM9.38672 7.98047C9.52344 8.0625 9.63281 8.08984 9.66016 8.17188C9.71484 8.22656 9.71484 8.52734 9.57812 8.88281C9.44141 9.23828 8.83984 9.56641 8.56641 9.59375C8.07422 9.67578 7.69141 9.64844 6.73438 9.21094C5.20312 8.55469 4.21875 7.02344 4.13672 6.94141C4.05469 6.83203 3.53516 6.12109 3.53516 5.35547C3.53516 4.61719 3.91797 4.26172 4.05469 4.09766C4.19141 3.93359 4.35547 3.90625 4.46484 3.90625C4.54688 3.90625 4.65625 3.90625 4.73828 3.90625C4.84766 3.90625 4.95703 3.87891 5.09375 4.17969C5.20312 4.48047 5.53125 5.21875 5.55859 5.30078C5.58594 5.38281 5.61328 5.46484 5.55859 5.57422C5.28516 6.14844 4.95703 6.12109 5.12109 6.39453C5.72266 7.40625 6.29688 7.76172 7.19922 8.19922C7.33594 8.28125 7.41797 8.25391 7.52734 8.17188C7.60938 8.0625 7.91016 7.70703 7.99219 7.57031C8.10156 7.40625 8.21094 7.43359 8.34766 7.48828C8.48438 7.54297 9.22266 7.89844 9.38672 7.98047Z" fill="#3D3D3D"/>
</svg>
